<svg xmlns="http://www.w3.org/2000/svg" xmlns:xlink="http://www.w3.org/1999/xlink" width="500" zoomAndPan="magnify" viewBox="0 0 375 374.999991" height="500" preserveAspectRatio="xMidYMid meet" version="1.0"><defs><g/><clipPath id="6bad33d291"><path d="M 120.742188 92.816406 L 270.742188 92.816406 L 270.742188 215 L 120.742188 215 Z M 120.742188 92.816406 " clip-rule="nonzero"/></clipPath></defs><path fill="#545454" d="M 161.539062 128.703125 C 162.640625 128.703125 163.683594 128.210938 164.289062 127.386719 C 164.398438 127.21875 164.398438 127.054688 164.34375 126.890625 C 164.234375 126.726562 164.125 126.617188 163.960938 126.617188 C 163.851562 126.617188 163.742188 126.671875 163.683594 126.78125 C 163.191406 127.386719 162.367188 127.824219 161.484375 127.824219 C 160.714844 127.824219 160.109375 127.550781 159.726562 127 C 159.617188 126.890625 159.507812 126.835938 159.339844 126.835938 C 159.175781 126.835938 159.011719 126.945312 158.902344 127.054688 C 158.847656 127.164062 158.847656 127.332031 158.957031 127.441406 C 159.507812 128.265625 160.496094 128.703125 161.539062 128.703125 Z M 161.539062 128.703125 " fill-opacity="1" fill-rule="nonzero"/><g clip-path="url(#6bad33d291)"><path fill="#545454" d="M 270.523438 168.460938 C 270.46875 168.347656 270.300781 168.347656 270.191406 168.292969 C 270.136719 168.292969 270.082031 168.238281 270.027344 168.238281 C 268.980469 167.855469 268.101562 167.03125 267.664062 166.039062 C 267.386719 165.378906 267.277344 164.609375 267.332031 163.894531 C 267.332031 163.289062 267.496094 162.742188 267.277344 162.191406 C 266.835938 161.203125 267.003906 159.9375 266.34375 158.945312 C 264.308594 156.03125 259.800781 156.253906 259.195312 156.144531 C 257.324219 155.757812 255.347656 155.648438 253.476562 155.371094 C 254.796875 154.601562 256.117188 153.832031 257.378906 153.007812 C 257.65625 152.789062 257.546875 152.402344 257.214844 152.292969 C 256.777344 152.183594 256.335938 152.074219 255.894531 151.964844 C 255.894531 151.964844 255.894531 151.964844 255.839844 151.964844 C 255.785156 151.910156 255.785156 151.855469 255.675781 151.800781 C 252.542969 150.203125 253.585938 145.3125 255.289062 143.109375 C 255.457031 142.890625 255.347656 142.671875 255.179688 142.5625 C 255.179688 142.5625 255.125 142.507812 255.125 142.507812 C 254.300781 142.011719 252.488281 141.625 252.320312 141.570312 C 249.351562 140.910156 246.492188 140.253906 243.742188 139.59375 C 246.109375 132.445312 245.886719 124.472656 245.230469 118.808594 C 244.402344 111.605469 241.433594 105.886719 236.429688 101.871094 C 231.867188 98.242188 225.269531 95.605469 216.304688 93.898438 C 213.007812 93.238281 209.433594 92.910156 205.75 92.910156 C 200.085938 92.910156 194.039062 93.734375 188.265625 95.21875 C 184.414062 96.207031 180.347656 97.527344 175.066406 99.507812 C 172.316406 100.550781 168.742188 102.039062 165.773438 104.675781 L 165.609375 104.839844 C 164.675781 105.5 163.851562 106.324219 163.027344 107.152344 C 162.75 107.425781 162.476562 107.699219 162.199219 107.976562 C 161.871094 108.304688 161.484375 108.636719 161.101562 109.019531 C 160.167969 109.898438 159.230469 110.78125 158.40625 111.714844 C 158.351562 111.714844 158.296875 111.769531 158.296875 111.824219 C 157.417969 111.21875 156.371094 110.78125 155.382812 110.394531 C 154.941406 110.230469 154.558594 110.066406 154.117188 109.84375 C 153.789062 109.679688 153.457031 109.625 153.183594 109.625 C 152.523438 109.625 152.082031 110.121094 151.917969 111.164062 C 151.367188 114.355469 151.148438 118.644531 153.128906 120.675781 L 153.128906 120.84375 C 153.183594 121.886719 153.128906 122.929688 153.019531 123.976562 C 152.90625 125.132812 152.796875 126.394531 152.964844 127.605469 C 153.183594 129.199219 153.566406 130.792969 154.117188 132.335938 C 154.394531 133.105469 154.667969 133.820312 154.996094 134.589844 C 155.050781 134.753906 155.878906 136.621094 155.988281 136.621094 C 155.824219 136.679688 155.710938 136.679688 155.546875 136.734375 C 151.753906 137.722656 148.015625 138.765625 144.21875 139.757812 C 142.460938 140.253906 140.589844 140.746094 138.667969 141.296875 C 137.730469 141.570312 136.796875 141.792969 135.863281 142.121094 C 135.53125 142.230469 135.203125 142.453125 134.871094 142.617188 C 134.488281 142.835938 134.101562 143 133.71875 143.222656 C 130.96875 145.035156 130.199219 148.5 130.585938 151.800781 L 124.867188 154.382812 C 124.480469 154.546875 124.644531 155.097656 125.03125 155.097656 C 125.085938 155.152344 125.085938 155.152344 125.140625 155.207031 C 125.140625 155.316406 125.195312 155.429688 125.359375 155.429688 C 125.359375 155.429688 125.359375 155.429688 125.414062 155.429688 C 127.066406 157.132812 128.382812 159.167969 128.496094 161.640625 C 128.605469 164.28125 127.066406 166.09375 125.085938 167.578125 C 125.03125 167.578125 124.976562 167.523438 124.921875 167.523438 C 124.480469 167.359375 124.261719 167.910156 124.535156 168.183594 C 124.589844 168.460938 124.867188 168.679688 125.140625 168.460938 C 125.195312 168.40625 125.746094 168.734375 125.855469 168.734375 C 126.074219 168.84375 126.351562 168.953125 126.570312 169.0625 C 127.066406 169.285156 127.558594 169.503906 128.054688 169.722656 C 128.769531 170.054688 129.484375 170.328125 130.199219 170.660156 C 128.878906 171.539062 127.613281 172.363281 126.296875 173.242188 C 125.964844 173.464844 125.636719 173.683594 125.304688 173.902344 C 125.03125 174.121094 124.699219 174.289062 124.480469 174.507812 C 120.742188 178.027344 120.742188 182.207031 120.851562 183.527344 C 121.015625 186.496094 122.832031 189.132812 125.414062 190.507812 C 125.46875 190.617188 125.527344 190.671875 125.636719 190.730469 C 149.554688 197.214844 172.976562 203.648438 197.0625 209.367188 C 203.988281 211.019531 210.917969 212.667969 217.847656 214.316406 C 217.847656 214.316406 217.902344 214.316406 217.902344 214.316406 C 217.902344 214.371094 217.902344 214.425781 217.957031 214.480469 C 218.121094 214.703125 218.175781 214.757812 218.503906 214.757812 C 218.5625 214.757812 218.5625 214.757812 218.617188 214.757812 C 218.726562 214.867188 218.945312 214.976562 219.109375 214.8125 C 219.769531 214.261719 220.429688 213.765625 221.089844 213.21875 C 226.863281 208.542969 232.527344 203.816406 238.136719 198.976562 C 243.742188 194.136719 249.242188 189.1875 254.6875 184.183594 C 257.378906 181.65625 260.074219 179.125 262.769531 176.542969 C 264.089844 175.277344 265.464844 173.957031 266.78125 172.691406 C 267.441406 172.035156 268.101562 171.375 268.761719 170.769531 C 269.3125 170.273438 269.640625 169.667969 270.246094 169.285156 C 270.523438 169.0625 270.742188 168.679688 270.523438 168.460938 Z M 256.390625 160.320312 C 256.609375 160.15625 256.832031 159.992188 257.050781 159.773438 C 257.929688 159.058594 258.863281 158.34375 259.746094 157.574219 C 262.054688 157.1875 264.695312 157.792969 265.847656 160.046875 C 266.179688 160.761719 266.289062 161.421875 266.289062 162.027344 C 266.289062 162.191406 266.234375 162.410156 266.179688 162.574219 C 265.296875 163.730469 263.921875 164.5 262.714844 165.378906 L 258.976562 168.074219 C 256.71875 169.667969 254.464844 171.320312 252.210938 172.914062 C 251.496094 173.351562 250.78125 173.847656 250.011719 174.289062 C 248.308594 175.332031 246.65625 176.378906 244.953125 177.421875 C 243.25 178.46875 241.542969 179.457031 239.839844 180.5 C 238.136719 181.492188 236.429688 182.535156 234.671875 183.527344 C 232.96875 184.515625 231.207031 185.503906 229.503906 186.496094 C 227.796875 187.484375 226.039062 188.472656 224.335938 189.464844 C 222.628906 190.453125 220.871094 191.441406 219.164062 192.433594 C 217.460938 193.421875 215.703125 194.414062 213.996094 195.402344 C 212.621094 196.226562 211.246094 197.050781 209.871094 197.820312 C 209.597656 197.988281 209.324219 198.152344 208.992188 198.316406 C 208.9375 198.316406 208.882812 198.371094 208.882812 198.371094 L 206.355469 199.910156 C 205.914062 200.1875 205.527344 200.40625 205.089844 200.679688 C 204.757812 200.847656 204.484375 201.121094 204.097656 201.230469 C 205.144531 199.964844 205.859375 198.480469 206.242188 196.886719 C 206.242188 196.886719 206.242188 196.886719 206.300781 196.886719 C 206.574219 194.191406 206.300781 191.386719 203.933594 189.738281 C 213.832031 184.84375 223.621094 179.730469 233.242188 174.398438 C 241.105469 170.164062 249.242188 165.820312 256.390625 160.320312 Z M 249.1875 175.71875 C 238.90625 183.855469 228.621094 191.9375 218.339844 200.019531 C 218.339844 199.910156 218.230469 199.800781 218.121094 199.746094 L 210.972656 198.042969 C 211.960938 197.492188 212.898438 196.886719 213.832031 196.335938 C 215.535156 195.347656 217.296875 194.300781 219 193.3125 C 220.707031 192.324219 222.464844 191.332031 224.167969 190.34375 C 225.929688 189.355469 227.632812 188.363281 229.335938 187.375 C 231.042969 186.382812 232.800781 185.394531 234.507812 184.40625 C 236.210938 183.414062 237.96875 182.425781 239.675781 181.382812 C 241.378906 180.335938 243.085938 179.347656 244.789062 178.300781 C 246.273438 177.476562 247.703125 176.597656 249.1875 175.71875 Z M 255.347656 152.570312 C 255.402344 152.625 255.457031 152.625 255.511719 152.625 C 255.566406 152.679688 255.621094 152.734375 255.730469 152.789062 L 256.117188 152.898438 C 253.640625 154.492188 251.058594 155.921875 248.472656 157.242188 C 248.199219 157.40625 247.867188 157.574219 247.59375 157.683594 C 241.542969 160.761719 235.332031 163.402344 229.117188 166.148438 C 219.441406 170.4375 209.984375 175.277344 200.582031 180.171875 C 197.722656 176.210938 196.839844 169.613281 202.394531 167.414062 C 202.449219 167.414062 202.449219 167.359375 202.503906 167.304688 C 202.890625 167.25 203.21875 167.140625 203.550781 166.917969 C 203.605469 166.863281 203.660156 166.808594 203.660156 166.753906 C 213.445312 162.410156 223.234375 157.957031 232.96875 153.449219 C 233.296875 153.285156 233.625 153.117188 233.957031 153.007812 C 240.664062 149.929688 247.371094 146.796875 254.027344 143.605469 C 252.542969 146.574219 252.15625 150.917969 255.347656 152.570312 Z M 171 169.777344 C 170.007812 164.996094 171.164062 160.101562 174.242188 156.363281 C 178.089844 157.957031 181.886719 159.550781 185.734375 161.089844 C 188.429688 162.191406 191.066406 163.289062 193.707031 164.335938 C 195.027344 164.886719 196.402344 165.378906 197.777344 165.820312 C 198.4375 166.039062 199.152344 166.261719 199.8125 166.480469 C 199.976562 166.535156 201.242188 167.085938 201.351562 167.03125 C 196.347656 169.503906 196.785156 175.773438 199.480469 180.007812 C 199.261719 179.675781 191.453125 177.3125 189.804688 176.761719 C 187.550781 175.9375 185.292969 175.113281 183.039062 174.289062 C 179.027344 172.859375 175.011719 171.375 171 169.945312 C 171 169.890625 171.054688 169.835938 171 169.777344 Z M 170.171875 169.667969 C 168.359375 169.007812 166.597656 168.347656 164.785156 167.746094 C 164.839844 167.691406 164.894531 167.632812 164.894531 167.523438 C 165.003906 163.402344 165.773438 157.792969 168.800781 154.546875 C 169.019531 154.492188 169.183594 154.382812 169.402344 154.328125 C 170.777344 154.878906 172.152344 155.484375 173.527344 156.03125 C 170.449219 159.9375 169.238281 164.832031 170.171875 169.667969 Z M 163.191406 159.441406 C 163.519531 158.289062 163.960938 156.96875 164.675781 155.757812 C 164.785156 155.757812 164.839844 155.757812 164.949219 155.703125 C 165.773438 155.59375 166.542969 155.316406 167.3125 155.042969 C 164.894531 158.453125 164.179688 163.511719 164.125 167.414062 C 163.683594 167.25 163.191406 167.085938 162.75 166.917969 C 162.75 166.917969 162.75 166.863281 162.75 166.808594 C 162.367188 164.390625 162.53125 161.917969 163.191406 159.441406 Z M 161.871094 166.699219 C 160.992188 166.371094 160.109375 166.039062 159.175781 165.710938 C 158.738281 165.546875 158.242188 165.492188 157.855469 165.214844 C 157.746094 165.105469 157.636719 164.996094 157.527344 164.832031 C 157.03125 163.894531 157.253906 162.632812 157.140625 161.585938 C 157.03125 160.15625 157.03125 158.671875 157.417969 157.242188 C 157.636719 156.308594 158.023438 155.484375 158.515625 154.65625 C 158.679688 154.769531 158.902344 154.933594 159.066406 155.042969 C 160.054688 155.59375 161.320312 155.921875 162.75 155.921875 C 163.027344 155.921875 163.355469 155.921875 163.628906 155.867188 C 163.191406 156.746094 162.859375 157.683594 162.53125 158.5625 C 161.761719 161.257812 161.597656 163.949219 161.871094 166.699219 Z M 156.703125 164.832031 C 155.273438 164.335938 153.84375 163.785156 152.414062 163.289062 C 152.523438 163.179688 152.632812 163.070312 152.578125 162.851562 C 151.421875 158.066406 153.019531 153.339844 156.648438 150.203125 C 156.648438 150.589844 156.648438 150.972656 156.703125 151.359375 C 156.867188 152.457031 157.253906 153.394531 157.96875 154.109375 C 157.527344 154.824219 157.140625 155.59375 156.867188 156.417969 C 155.988281 159.167969 156.480469 162.082031 156.703125 164.832031 Z M 170.394531 153.941406 C 172.042969 153.449219 173.746094 153.0625 175.5625 152.898438 C 177.871094 152.625 180.347656 152.515625 182.929688 152.515625 C 187.328125 152.515625 192.113281 152.898438 197.609375 153.667969 C 199.371094 153.886719 201.183594 154.21875 203 154.492188 C 208.113281 155.316406 213.390625 156.144531 218.5625 156.144531 C 222.132812 156.144531 225.378906 155.703125 228.238281 154.878906 C 219.878906 158.726562 211.523438 162.519531 203.109375 166.261719 C 203 166.316406 202.945312 166.371094 202.890625 166.425781 C 202.667969 166.535156 202.449219 166.589844 202.175781 166.644531 C 201.898438 166.644531 201.183594 166.203125 200.910156 166.09375 C 200.359375 165.875 199.8125 165.710938 199.207031 165.492188 C 198.105469 165.105469 196.953125 164.664062 195.851562 164.28125 C 193.597656 163.457031 191.289062 162.574219 189.035156 161.695312 C 184.085938 159.773438 179.136719 157.738281 174.242188 155.703125 C 174.1875 155.648438 174.078125 155.59375 173.96875 155.59375 C 172.8125 154.988281 171.601562 154.492188 170.394531 153.941406 Z M 251.882812 142.285156 C 252.816406 142.394531 253.53125 142.617188 254.027344 142.835938 C 247.648438 145.859375 241.269531 148.828125 234.890625 151.800781 C 239.125 148.941406 241.820312 144.925781 243.414062 140.472656 C 248.527344 141.570312 251.828125 142.285156 251.882812 142.285156 Z M 153.898438 126.945312 C 153.84375 125.902344 153.898438 124.855469 154.007812 123.867188 C 154.117188 122.875 154.171875 121.832031 154.117188 120.84375 C 154.117188 120.789062 154.117188 120.730469 154.0625 120.730469 C 154.171875 120.566406 154.117188 120.402344 154.007812 120.238281 C 152.359375 118.585938 152.632812 115.453125 152.796875 113.144531 L 152.796875 112.871094 C 152.796875 112.757812 152.796875 112.539062 152.796875 112.375 C 152.796875 111.933594 152.796875 111.273438 152.964844 111.054688 C 153.128906 110.78125 153.347656 110.667969 153.621094 110.667969 C 153.953125 110.667969 154.335938 110.835938 154.667969 111 L 155.21875 111.21875 C 156.59375 111.769531 158.078125 112.375 159.066406 113.585938 C 159.175781 113.695312 159.285156 113.75 159.339844 113.75 C 159.507812 113.75 159.671875 113.640625 159.726562 113.472656 C 159.78125 113.308594 159.78125 113.144531 159.671875 112.980469 C 159.507812 112.757812 159.285156 112.539062 159.066406 112.375 C 159.835938 111.441406 160.714844 110.613281 161.597656 109.84375 C 161.871094 109.570312 162.144531 109.296875 162.476562 109.019531 C 162.859375 108.691406 163.191406 108.304688 163.519531 107.921875 C 163.90625 107.480469 164.34375 107.097656 164.730469 106.710938 C 165.058594 106.382812 165.5 106.105469 165.882812 105.832031 C 166.324219 105.554688 166.765625 105.226562 167.148438 104.839844 C 167.972656 104.070312 168.910156 103.46875 169.625 103.027344 C 171.273438 102.039062 173.144531 101.15625 175.5625 100.277344 C 180.015625 98.628906 183.480469 97.472656 186.722656 96.539062 C 192.992188 94.777344 199.425781 93.84375 205.859375 93.84375 C 207.730469 93.84375 209.542969 93.898438 211.359375 94.0625 C 215.535156 94.394531 219.496094 95.492188 223.125 96.539062 C 226.257812 97.472656 229.941406 98.738281 233.296875 100.773438 C 239.398438 104.511719 243.140625 110.449219 244.238281 117.984375 C 244.789062 121.886719 245.613281 131.125 242.808594 139.371094 C 242.699219 139.648438 242.589844 139.976562 242.480469 140.253906 C 240.390625 145.804688 236.597656 150.863281 229.832031 153.339844 C 226.480469 154.601562 222.738281 155.207031 218.394531 155.207031 C 213.28125 155.207031 208.003906 154.382812 202.945312 153.558594 C 200.691406 153.171875 198.601562 152.84375 196.457031 152.570312 C 191.289062 151.910156 186.777344 151.578125 182.765625 151.578125 C 179.246094 151.578125 176.113281 151.800781 173.085938 152.292969 L 172.59375 152.402344 C 171.492188 152.625 170.339844 152.953125 169.074219 153.394531 C 169.019531 153.394531 168.964844 153.449219 168.910156 153.449219 C 168.632812 153.558594 168.414062 153.667969 168.140625 153.777344 C 168.027344 153.832031 167.972656 153.832031 167.917969 153.886719 C 167.3125 154.164062 166.710938 154.4375 166.050781 154.601562 C 165.773438 154.65625 165.554688 154.714844 165.28125 154.769531 C 164.894531 154.824219 164.566406 154.878906 164.234375 154.933594 C 163.796875 154.988281 163.355469 155.042969 162.914062 155.042969 C 162.144531 155.042969 161.375 154.933594 160.714844 154.769531 C 160.054688 154.601562 159.507812 154.273438 159.066406 153.941406 C 158.847656 153.777344 158.679688 153.613281 158.515625 153.394531 C 158.1875 153.007812 157.96875 152.570312 157.855469 152.019531 C 157.636719 151.304688 157.582031 150.480469 157.691406 149.597656 C 157.691406 149.324219 157.746094 149.105469 157.800781 148.828125 C 158.023438 147.675781 158.40625 146.574219 158.957031 145.53125 C 159.230469 145.035156 162.96875 140.363281 163.683594 139.648438 C 165.167969 138.21875 166.765625 136.898438 168.523438 135.851562 C 171.054688 134.257812 173.859375 133.050781 176.773438 132.222656 C 180.839844 131.179688 185.347656 130.628906 190.296875 130.628906 C 194.09375 130.628906 198.105469 130.960938 202.339844 131.5625 C 204.871094 131.949219 207.453125 132.445312 209.929688 132.9375 C 211.578125 133.269531 213.226562 133.542969 214.875 133.875 C 217.515625 134.3125 220.15625 134.699219 222.847656 134.917969 C 224.003906 135.027344 225.160156 135.027344 226.3125 135.027344 L 226.972656 135.027344 C 230.4375 134.972656 233.625 133.707031 235.660156 131.5625 C 237.367188 129.75 238.246094 127.332031 238.136719 124.691406 C 238.136719 124.417969 237.914062 124.25 237.695312 124.25 C 237.585938 124.25 237.476562 124.304688 237.367188 124.359375 C 237.3125 124.417969 237.253906 124.527344 237.253906 124.636719 C 237.367188 128.210938 235.714844 131.234375 232.691406 132.773438 C 230.933594 133.652344 228.898438 134.09375 226.257812 134.09375 C 224.882812 134.09375 223.5625 133.984375 222.132812 133.875 C 219.878906 133.652344 217.570312 133.378906 215.316406 132.992188 C 213.390625 132.664062 211.523438 132.335938 209.652344 132.003906 C 207.949219 131.675781 206.1875 131.34375 204.429688 131.070312 C 201.84375 130.628906 199.261719 130.246094 196.621094 130.078125 C 194.203125 129.914062 192.003906 129.804688 189.914062 129.804688 C 188.703125 129.804688 187.492188 129.859375 186.339844 129.914062 C 183.976562 130.023438 181.71875 130.300781 179.632812 130.683594 C 178.257812 130.960938 176.9375 131.289062 175.671875 131.675781 C 174.847656 131.949219 174.023438 132.167969 173.253906 132.5 C 172.261719 132.882812 171.328125 133.324219 170.394531 133.765625 C 169.347656 134.3125 168.304688 134.863281 167.371094 135.523438 C 165.5 136.789062 163.796875 138.21875 162.253906 139.8125 C 161.871094 140.253906 161.484375 140.636719 161.101562 141.078125 C 161.046875 141.078125 161.046875 141.023438 160.992188 141.023438 C 160.222656 140.582031 159.5625 140.085938 158.957031 139.425781 C 155.601562 135.578125 154.117188 129.253906 153.898438 126.945312 Z M 153.292969 138.109375 C 154.335938 137.832031 155.382812 137.503906 156.425781 137.117188 C 156.59375 137.558594 156.921875 137.941406 157.140625 138.382812 C 157.417969 138.878906 157.800781 139.371094 158.1875 139.757812 C 158.351562 139.921875 160.386719 141.902344 160.550781 141.679688 C 160.386719 141.902344 160.222656 142.121094 160.054688 142.394531 C 158.679688 143.824219 157.363281 146.191406 156.867188 148.5 C 156.59375 148.390625 156.316406 148.28125 156.042969 148.226562 C 155.21875 147.949219 154.394531 147.675781 153.511719 147.34375 C 151.808594 146.796875 150.160156 146.246094 148.453125 145.695312 C 147.960938 145.53125 147.464844 145.367188 146.96875 145.199219 C 146.640625 145.089844 146.253906 144.980469 145.925781 144.871094 C 143.890625 144.210938 141.855469 143.496094 139.765625 142.945312 C 138.941406 142.726562 138.0625 142.5625 137.183594 142.453125 C 137.511719 142.453125 138.007812 142.230469 138.28125 142.121094 C 138.667969 142.011719 139.050781 141.902344 139.382812 141.792969 C 140.152344 141.570312 140.867188 141.351562 141.636719 141.1875 C 144.109375 140.472656 146.640625 139.8125 149.113281 139.152344 C 150.597656 138.824219 151.972656 138.492188 153.292969 138.109375 Z M 132.453125 145.859375 C 134.652344 141.902344 139.160156 143.550781 142.570312 144.652344 C 143.339844 144.925781 144.109375 145.144531 144.933594 145.367188 C 145.265625 145.476562 145.648438 145.585938 146.035156 145.695312 C 149.609375 146.796875 153.183594 147.949219 156.703125 149.214844 C 152.414062 152.515625 150.597656 157.738281 151.863281 163.070312 C 149.9375 162.355469 147.960938 161.695312 146.035156 160.980469 C 145.761719 160.871094 145.484375 160.761719 145.210938 160.707031 C 141.085938 159.222656 136.90625 157.738281 132.730469 156.199219 C 132.070312 154.988281 131.574219 153.667969 131.355469 152.292969 C 131.300781 152.019531 131.300781 151.800781 131.242188 151.523438 C 131.132812 149.542969 131.464844 147.621094 132.453125 145.859375 Z M 125.800781 167.910156 C 127.726562 166.425781 129.15625 164.554688 129.210938 161.972656 C 129.265625 159.71875 128.273438 157.683594 126.898438 155.976562 C 132.015625 157.957031 136.960938 160.320312 141.855469 162.851562 C 142.074219 162.960938 142.351562 163.070312 142.570312 163.234375 C 149.5 166.863281 156.316406 170.714844 163.410156 174.066406 C 176.222656 180.171875 189.472656 185.175781 202.726562 190.234375 C 202.78125 190.289062 202.890625 190.34375 203 190.34375 C 203.164062 190.398438 203.382812 190.507812 203.550781 190.5625 C 203.605469 190.5625 203.660156 190.5625 203.714844 190.5625 C 205.527344 191.992188 205.859375 194.246094 205.640625 196.445312 C 205.640625 196.503906 205.585938 196.503906 205.585938 196.558594 C 205.199219 198.207031 204.484375 199.636719 203.382812 200.957031 C 203.328125 201.011719 203.273438 201.121094 203.273438 201.230469 C 195.082031 197.710938 186.890625 194.191406 178.695312 190.671875 C 177.210938 190.015625 175.726562 189.410156 174.242188 188.75 C 160.054688 182.644531 145.871094 176.542969 131.683594 170.4375 C 131.410156 170.328125 131.1875 170.21875 130.914062 170.109375 C 129.210938 169.394531 127.503906 168.625 125.800781 167.910156 Z M 130.914062 170.933594 C 132.894531 171.757812 134.816406 172.636719 136.796875 173.464844 C 138.722656 174.289062 140.703125 175.167969 142.679688 175.992188 C 144.605469 176.816406 146.585938 177.695312 148.507812 178.523438 C 150.433594 179.347656 152.414062 180.226562 154.394531 181.050781 C 156.316406 181.875 158.296875 182.753906 160.277344 183.582031 C 162.199219 184.40625 164.179688 185.285156 166.105469 186.109375 C 167.09375 186.550781 168.027344 186.933594 168.964844 187.375 C 161.15625 185.230469 153.347656 182.976562 145.539062 180.609375 C 138.996094 178.6875 132.507812 176.652344 126.019531 174.5625 C 125.964844 174.5625 125.910156 174.507812 125.855469 174.507812 C 125.800781 174.507812 125.746094 174.453125 125.636719 174.453125 C 127.394531 173.242188 129.15625 172.089844 130.914062 170.933594 Z M 145.816406 195.511719 C 139.105469 193.808594 132.785156 191.882812 126.128906 190.125 C 126.128906 190.125 126.128906 190.070312 126.074219 190.070312 C 123.324219 188.804688 121.457031 186.054688 121.457031 183.03125 C 121.457031 179.839844 122.886719 177.039062 125.195312 175.003906 C 140.976562 179.953125 157.527344 184.898438 173.472656 189.300781 C 174.902344 189.902344 176.332031 190.507812 177.761719 191.167969 C 179.6875 191.992188 181.664062 192.871094 183.589844 193.699219 C 185.570312 194.523438 187.492188 195.402344 189.472656 196.226562 C 191.398438 197.050781 193.378906 197.929688 195.355469 198.757812 C 197.28125 199.582031 199.261719 200.460938 201.183594 201.285156 C 201.625 201.449219 202.011719 201.671875 202.449219 201.835938 C 202.835938 202 203.21875 202.21875 203.660156 202.332031 C 204.15625 202.441406 204.484375 202.109375 204.871094 201.890625 C 205.308594 201.617188 205.695312 201.394531 206.132812 201.121094 C 206.957031 200.625 207.839844 200.074219 208.71875 199.582031 C 209.214844 199.304688 209.652344 199.03125 210.148438 198.757812 C 212.730469 199.359375 215.371094 200.019531 217.957031 200.625 C 218.011719 200.625 218.066406 200.625 218.066406 200.625 C 218.121094 200.789062 218.285156 200.957031 218.503906 200.902344 C 217.515625 203.046875 216.855469 205.355469 216.746094 207.71875 C 216.691406 208.929688 216.746094 210.136719 217.019531 211.347656 C 217.074219 211.511719 217.515625 212.777344 217.902344 213.65625 C 193.761719 207.828125 169.84375 201.671875 145.816406 195.511719 Z M 218.78125 214.097656 C 218.726562 213.824219 218.5625 213.601562 218.394531 213.21875 C 217.734375 211.84375 217.460938 210.359375 217.40625 208.820312 C 217.296875 205.960938 218.066406 203.101562 219.386719 200.570312 C 219.441406 200.40625 219.441406 200.296875 219.332031 200.1875 C 231.152344 190.894531 242.917969 181.546875 254.742188 172.253906 C 255.179688 171.867188 255.675781 171.539062 256.117188 171.152344 C 257.65625 170.054688 259.140625 169.007812 260.625 167.910156 C 262.4375 166.589844 264.75 165.378906 266.289062 163.675781 C 266.234375 163.894531 266.234375 164.0625 266.234375 164.28125 C 266.234375 165.105469 266.453125 165.875 266.894531 166.589844 C 267.332031 167.304688 268.265625 168.679688 269.257812 169.121094 C 253.257812 185.011719 236.375 200.019531 218.78125 214.097656 Z M 218.78125 214.097656 " fill-opacity="1" fill-rule="nonzero"/></g><path fill="#545454" d="M 178.585938 115.179688 C 178.75 115.179688 178.859375 115.125 178.972656 114.957031 C 180.675781 112.484375 183.863281 111.382812 186.449219 110.78125 C 187 112.757812 187.382812 115.507812 186.339844 117.269531 C 186.230469 117.378906 186.230469 117.542969 186.339844 117.707031 C 186.449219 117.871094 186.558594 117.929688 186.722656 117.929688 C 186.890625 117.929688 187 117.871094 187.109375 117.707031 C 188.375 115.5625 187.878906 112.375 187.21875 110.121094 C 187.164062 109.957031 187 109.789062 186.722656 109.789062 L 186.667969 109.789062 C 183.753906 110.449219 180.179688 111.605469 178.257812 114.464844 C 178.144531 114.574219 178.144531 114.738281 178.203125 114.847656 C 178.257812 115.125 178.421875 115.179688 178.585938 115.179688 Z M 178.585938 115.179688 " fill-opacity="1" fill-rule="nonzero"/><path fill="#545454" d="M 167.972656 129.695312 C 168.304688 130.078125 168.578125 130.410156 169.074219 130.574219 C 169.019531 130.960938 169.074219 131.34375 169.074219 131.730469 C 169.074219 131.894531 169.074219 132.058594 169.074219 132.277344 C 169.074219 132.554688 169.292969 132.71875 169.515625 132.71875 C 169.625 132.71875 169.734375 132.664062 169.84375 132.609375 C 169.898438 132.554688 169.953125 132.445312 169.953125 132.335938 C 169.953125 132.167969 169.953125 131.949219 169.953125 131.785156 C 169.898438 131.398438 169.898438 131.015625 169.953125 130.683594 L 169.953125 130.628906 C 170.339844 130.464844 170.667969 130.132812 171 129.804688 C 171.164062 129.640625 171.273438 129.53125 171.4375 129.363281 C 171.546875 129.253906 171.601562 129.089844 171.546875 128.925781 C 171.492188 128.761719 171.273438 128.59375 171.109375 128.59375 C 171 128.59375 170.886719 128.648438 170.832031 128.703125 C 170.722656 128.816406 170.613281 128.925781 170.449219 129.089844 C 170.171875 129.417969 169.84375 129.75 169.457031 129.804688 C 169.128906 129.804688 168.855469 129.417969 168.578125 129.089844 C 168.46875 128.925781 168.359375 128.816406 168.25 128.703125 C 168.140625 128.648438 168.085938 128.59375 167.972656 128.59375 C 167.808594 128.59375 167.589844 128.703125 167.535156 128.871094 C 167.480469 129.035156 167.535156 129.199219 167.644531 129.308594 C 167.699219 129.363281 167.808594 129.476562 167.972656 129.695312 Z M 167.972656 129.695312 " fill-opacity="1" fill-rule="nonzero"/><path fill="#545454" d="M 177.652344 127.769531 C 178.75 127.769531 179.796875 127.277344 180.402344 126.449219 C 180.511719 126.285156 180.511719 126.121094 180.457031 125.957031 C 180.347656 125.789062 180.234375 125.679688 180.070312 125.679688 C 179.960938 125.679688 179.851562 125.734375 179.796875 125.847656 C 179.300781 126.449219 178.476562 126.890625 177.597656 126.890625 C 176.828125 126.890625 176.222656 126.617188 175.835938 126.066406 C 175.726562 125.957031 175.617188 125.902344 175.453125 125.902344 C 175.289062 125.902344 175.121094 126.011719 175.011719 126.175781 C 174.957031 126.285156 174.957031 126.449219 175.066406 126.5625 C 175.671875 127.332031 176.605469 127.769531 177.652344 127.769531 Z M 177.652344 127.769531 " fill-opacity="1" fill-rule="nonzero"/><path fill="#545454" d="M 160.277344 132.277344 C 156.480469 130.355469 152.25 129.53125 148.070312 129.859375 C 147.519531 129.914062 147.683594 130.683594 148.234375 130.683594 C 152.304688 130.355469 156.425781 131.234375 160.054688 133.050781 C 160.441406 133.269531 160.714844 132.5 160.277344 132.277344 Z M 160.277344 132.277344 " fill-opacity="1" fill-rule="nonzero"/><path fill="#545454" d="M 160.109375 134.480469 C 155.988281 133.542969 151.644531 133.820312 147.683594 135.136719 C 147.191406 135.304688 147.519531 136.074219 148.015625 135.90625 C 151.863281 134.589844 156.042969 134.421875 160.054688 135.304688 C 160.496094 135.414062 160.605469 134.589844 160.109375 134.480469 Z M 160.109375 134.480469 " fill-opacity="1" fill-rule="nonzero"/><path fill="#545454" d="M 160.332031 136.511719 C 156.539062 137.613281 153.347656 138.710938 150.378906 141.679688 C 149.992188 142.066406 150.597656 142.5625 151.039062 142.175781 C 154.226562 139.371094 157.195312 138.109375 160.660156 137.28125 C 161.15625 137.171875 160.824219 136.347656 160.332031 136.511719 Z M 160.332031 136.511719 " fill-opacity="1" fill-rule="nonzero"/><g fill="#545454" fill-opacity="1"><g transform="translate(163.68824, 237.916816)"><g><path d="M 0.53125 -8.171875 C 0.53125 -8.253906 0.550781 -8.3125 0.59375 -8.34375 C 0.632812 -8.382812 0.71875 -8.40625 0.84375 -8.40625 L 2.03125 -8.40625 C 3.375 -8.40625 4.046875 -7.785156 4.046875 -6.546875 C 4.046875 -5.941406 3.925781 -5.476562 3.6875 -5.15625 C 3.457031 -4.832031 3.195312 -4.648438 2.90625 -4.609375 C 3.28125 -4.585938 3.609375 -4.445312 3.890625 -4.1875 C 4.171875 -3.9375 4.3125 -3.492188 4.3125 -2.859375 C 4.3125 -1.898438 4.097656 -1.179688 3.671875 -0.703125 C 3.242188 -0.234375 2.703125 0 2.046875 0 L 0.53125 0 Z M 2.09375 -4.96875 C 2.375 -4.96875 2.59375 -5.082031 2.75 -5.3125 C 2.90625 -5.539062 2.984375 -5.890625 2.984375 -6.359375 C 2.984375 -7.148438 2.6875 -7.546875 2.09375 -7.546875 L 1.5 -7.546875 L 1.5 -4.96875 Z M 2.046875 -0.859375 C 2.378906 -0.859375 2.648438 -1.015625 2.859375 -1.328125 C 3.078125 -1.640625 3.1875 -2.117188 3.1875 -2.765625 C 3.1875 -3.160156 3.140625 -3.457031 3.046875 -3.65625 C 2.953125 -3.851562 2.828125 -3.984375 2.671875 -4.046875 C 2.515625 -4.109375 2.3125 -4.140625 2.0625 -4.140625 L 1.5 -4.140625 L 1.5 -0.859375 Z M 2.046875 -0.859375 "/></g></g></g><g fill="#545454" fill-opacity="1"><g transform="translate(171.116245, 237.916816)"><g><path d="M 0.53125 -8.125 C 0.53125 -8.226562 0.546875 -8.296875 0.578125 -8.328125 C 0.609375 -8.359375 0.675781 -8.378906 0.78125 -8.390625 C 0.894531 -8.398438 1.132812 -8.40625 1.5 -8.40625 L 1.5 -0.90625 L 3.5625 -0.90625 L 3.5625 -0.1875 C 3.5625 -0.113281 3.546875 -0.0625 3.515625 -0.03125 C 3.484375 -0.0078125 3.4375 0 3.375 0 L 0.53125 0 Z M 0.53125 -8.125 "/></g></g></g><g fill="#545454" fill-opacity="1"><g transform="translate(177.788253, 237.916816)"><g><path d="M 5.171875 -0.1875 C 5.191406 -0.113281 5.171875 -0.0546875 5.109375 -0.015625 C 5.054688 0.015625 4.9375 0.03125 4.75 0.03125 C 4.53125 0.03125 4.335938 0.0195312 4.171875 0 L 3.671875 -2.140625 L 1.578125 -2.140625 L 1.109375 -0.171875 C 1.085938 -0.0976562 1.050781 -0.046875 1 -0.015625 C 0.945312 0.015625 0.832031 0.03125 0.65625 0.03125 C 0.488281 0.03125 0.289062 0.015625 0.0625 -0.015625 L 2.203125 -8.265625 C 2.234375 -8.378906 2.351562 -8.4375 2.5625 -8.4375 C 2.75 -8.4375 2.90625 -8.425781 3.03125 -8.40625 Z M 3.453125 -3.015625 L 3.046875 -4.734375 C 2.816406 -5.710938 2.675781 -6.488281 2.625 -7.0625 C 2.539062 -6.34375 2.398438 -5.566406 2.203125 -4.734375 L 1.78125 -3.015625 Z M 3.453125 -3.015625 "/></g></g></g><g fill="#545454" fill-opacity="1"><g transform="translate(185.936263, 237.916816)"><g><path d="M 0.53125 -8.171875 C 0.53125 -8.253906 0.550781 -8.3125 0.59375 -8.34375 C 0.632812 -8.382812 0.71875 -8.40625 0.84375 -8.40625 L 2.03125 -8.40625 C 3.375 -8.40625 4.046875 -7.785156 4.046875 -6.546875 C 4.046875 -5.941406 3.925781 -5.476562 3.6875 -5.15625 C 3.457031 -4.832031 3.195312 -4.648438 2.90625 -4.609375 C 3.28125 -4.585938 3.609375 -4.445312 3.890625 -4.1875 C 4.171875 -3.9375 4.3125 -3.492188 4.3125 -2.859375 C 4.3125 -1.898438 4.097656 -1.179688 3.671875 -0.703125 C 3.242188 -0.234375 2.703125 0 2.046875 0 L 0.53125 0 Z M 2.09375 -4.96875 C 2.375 -4.96875 2.59375 -5.082031 2.75 -5.3125 C 2.90625 -5.539062 2.984375 -5.890625 2.984375 -6.359375 C 2.984375 -7.148438 2.6875 -7.546875 2.09375 -7.546875 L 1.5 -7.546875 L 1.5 -4.96875 Z M 2.046875 -0.859375 C 2.378906 -0.859375 2.648438 -1.015625 2.859375 -1.328125 C 3.078125 -1.640625 3.1875 -2.117188 3.1875 -2.765625 C 3.1875 -3.160156 3.140625 -3.457031 3.046875 -3.65625 C 2.953125 -3.851562 2.828125 -3.984375 2.671875 -4.046875 C 2.515625 -4.109375 2.3125 -4.140625 2.0625 -4.140625 L 1.5 -4.140625 L 1.5 -0.859375 Z M 2.046875 -0.859375 "/></g></g></g><g fill="#545454" fill-opacity="1"><g transform="translate(193.364268, 237.916816)"><g><path d="M 0.53125 -8.125 C 0.53125 -8.226562 0.546875 -8.296875 0.578125 -8.328125 C 0.609375 -8.359375 0.675781 -8.378906 0.78125 -8.390625 C 0.894531 -8.398438 1.132812 -8.40625 1.5 -8.40625 L 1.5 -0.90625 L 3.5625 -0.90625 L 3.5625 -0.1875 C 3.5625 -0.113281 3.546875 -0.0625 3.515625 -0.03125 C 3.484375 -0.0078125 3.4375 0 3.375 0 L 0.53125 0 Z M 0.53125 -8.125 "/></g></g></g><g fill="#545454" fill-opacity="1"><g transform="translate(200.036276, 237.916816)"><g><path d="M 5.171875 -0.1875 C 5.191406 -0.113281 5.171875 -0.0546875 5.109375 -0.015625 C 5.054688 0.015625 4.9375 0.03125 4.75 0.03125 C 4.53125 0.03125 4.335938 0.0195312 4.171875 0 L 3.671875 -2.140625 L 1.578125 -2.140625 L 1.109375 -0.171875 C 1.085938 -0.0976562 1.050781 -0.046875 1 -0.015625 C 0.945312 0.015625 0.832031 0.03125 0.65625 0.03125 C 0.488281 0.03125 0.289062 0.015625 0.0625 -0.015625 L 2.203125 -8.265625 C 2.234375 -8.378906 2.351562 -8.4375 2.5625 -8.4375 C 2.75 -8.4375 2.90625 -8.425781 3.03125 -8.40625 Z M 3.453125 -3.015625 L 3.046875 -4.734375 C 2.816406 -5.710938 2.675781 -6.488281 2.625 -7.0625 C 2.539062 -6.34375 2.398438 -5.566406 2.203125 -4.734375 L 1.78125 -3.015625 Z M 3.453125 -3.015625 "/></g></g></g><g fill="#545454" fill-opacity="1"><g transform="translate(208.184285, 237.916816)"><g><path d="M 0.53125 -8.171875 C 0.53125 -8.253906 0.550781 -8.3125 0.59375 -8.34375 C 0.632812 -8.382812 0.71875 -8.40625 0.84375 -8.40625 L 2.03125 -8.40625 C 3.375 -8.40625 4.046875 -7.785156 4.046875 -6.546875 C 4.046875 -5.941406 3.925781 -5.476562 3.6875 -5.15625 C 3.457031 -4.832031 3.195312 -4.648438 2.90625 -4.609375 C 3.28125 -4.585938 3.609375 -4.445312 3.890625 -4.1875 C 4.171875 -3.9375 4.3125 -3.492188 4.3125 -2.859375 C 4.3125 -1.898438 4.097656 -1.179688 3.671875 -0.703125 C 3.242188 -0.234375 2.703125 0 2.046875 0 L 0.53125 0 Z M 2.09375 -4.96875 C 2.375 -4.96875 2.59375 -5.082031 2.75 -5.3125 C 2.90625 -5.539062 2.984375 -5.890625 2.984375 -6.359375 C 2.984375 -7.148438 2.6875 -7.546875 2.09375 -7.546875 L 1.5 -7.546875 L 1.5 -4.96875 Z M 2.046875 -0.859375 C 2.378906 -0.859375 2.648438 -1.015625 2.859375 -1.328125 C 3.078125 -1.640625 3.1875 -2.117188 3.1875 -2.765625 C 3.1875 -3.160156 3.140625 -3.457031 3.046875 -3.65625 C 2.953125 -3.851562 2.828125 -3.984375 2.671875 -4.046875 C 2.515625 -4.109375 2.3125 -4.140625 2.0625 -4.140625 L 1.5 -4.140625 L 1.5 -0.859375 Z M 2.046875 -0.859375 "/></g></g></g><g fill="#545454" fill-opacity="1"><g transform="translate(215.61229, 237.916816)"><g><path d="M 2.53125 0.125 C 1.988281 0.125 1.5625 0 1.25 -0.25 C 0.945312 -0.507812 0.722656 -0.953125 0.578125 -1.578125 C 0.429688 -2.203125 0.359375 -3.09375 0.359375 -4.25 C 0.359375 -5.300781 0.441406 -6.140625 0.609375 -6.765625 C 0.773438 -7.390625 1.023438 -7.835938 1.359375 -8.109375 C 1.691406 -8.378906 2.125 -8.515625 2.65625 -8.515625 C 3.1875 -8.515625 3.601562 -8.382812 3.90625 -8.125 C 4.21875 -7.863281 4.441406 -7.429688 4.578125 -6.828125 C 4.710938 -6.222656 4.78125 -5.375 4.78125 -4.28125 C 4.78125 -3.1875 4.703125 -2.316406 4.546875 -1.671875 C 4.390625 -1.035156 4.148438 -0.578125 3.828125 -0.296875 C 3.503906 -0.015625 3.070312 0.125 2.53125 0.125 Z M 2.5625 -0.875 C 2.863281 -0.875 3.097656 -0.984375 3.265625 -1.203125 C 3.429688 -1.429688 3.550781 -1.789062 3.625 -2.28125 C 3.707031 -2.769531 3.75 -3.429688 3.75 -4.265625 C 3.75 -5.097656 3.710938 -5.742188 3.640625 -6.203125 C 3.578125 -6.671875 3.46875 -7.007812 3.3125 -7.21875 C 3.15625 -7.425781 2.929688 -7.53125 2.640625 -7.53125 C 2.347656 -7.53125 2.113281 -7.414062 1.9375 -7.1875 C 1.769531 -6.957031 1.644531 -6.585938 1.5625 -6.078125 C 1.488281 -5.566406 1.453125 -4.878906 1.453125 -4.015625 C 1.453125 -3.242188 1.484375 -2.628906 1.546875 -2.171875 C 1.617188 -1.722656 1.734375 -1.394531 1.890625 -1.1875 C 2.054688 -0.976562 2.28125 -0.875 2.5625 -0.875 Z M 2.5625 -0.875 "/></g></g></g><g fill="#545454" fill-opacity="1"><g transform="translate(223.664295, 237.916816)"><g><path d="M 2.53125 0.125 C 1.988281 0.125 1.5625 0 1.25 -0.25 C 0.945312 -0.507812 0.722656 -0.953125 0.578125 -1.578125 C 0.429688 -2.203125 0.359375 -3.09375 0.359375 -4.25 C 0.359375 -5.300781 0.441406 -6.140625 0.609375 -6.765625 C 0.773438 -7.390625 1.023438 -7.835938 1.359375 -8.109375 C 1.691406 -8.378906 2.125 -8.515625 2.65625 -8.515625 C 3.1875 -8.515625 3.601562 -8.382812 3.90625 -8.125 C 4.21875 -7.863281 4.441406 -7.429688 4.578125 -6.828125 C 4.710938 -6.222656 4.78125 -5.375 4.78125 -4.28125 C 4.78125 -3.1875 4.703125 -2.316406 4.546875 -1.671875 C 4.390625 -1.035156 4.148438 -0.578125 3.828125 -0.296875 C 3.503906 -0.015625 3.070312 0.125 2.53125 0.125 Z M 2.5625 -0.875 C 2.863281 -0.875 3.097656 -0.984375 3.265625 -1.203125 C 3.429688 -1.429688 3.550781 -1.789062 3.625 -2.28125 C 3.707031 -2.769531 3.75 -3.429688 3.75 -4.265625 C 3.75 -5.097656 3.710938 -5.742188 3.640625 -6.203125 C 3.578125 -6.671875 3.46875 -7.007812 3.3125 -7.21875 C 3.15625 -7.425781 2.929688 -7.53125 2.640625 -7.53125 C 2.347656 -7.53125 2.113281 -7.414062 1.9375 -7.1875 C 1.769531 -6.957031 1.644531 -6.585938 1.5625 -6.078125 C 1.488281 -5.566406 1.453125 -4.878906 1.453125 -4.015625 C 1.453125 -3.242188 1.484375 -2.628906 1.546875 -2.171875 C 1.617188 -1.722656 1.734375 -1.394531 1.890625 -1.1875 C 2.054688 -0.976562 2.28125 -0.875 2.5625 -0.875 Z M 2.5625 -0.875 "/></g></g></g><g fill="#545454" fill-opacity="1"><g transform="translate(231.716301, 237.916816)"><g><path d="M 4.015625 -8.40625 C 4.304688 -8.40625 4.453125 -8.347656 4.453125 -8.234375 C 4.453125 -8.203125 4.441406 -8.164062 4.421875 -8.125 L 2.46875 -4.78125 C 3.425781 -4.050781 4.070312 -2.53125 4.40625 -0.21875 C 4.414062 -0.125 4.394531 -0.0546875 4.34375 -0.015625 C 4.289062 0.015625 4.179688 0.03125 4.015625 0.03125 C 3.804688 0.03125 3.582031 0.015625 3.34375 -0.015625 C 3.144531 -1.023438 2.945312 -1.820312 2.75 -2.40625 C 2.550781 -3 2.289062 -3.46875 1.96875 -3.8125 C 1.863281 -3.9375 1.703125 -4.046875 1.484375 -4.140625 L 1.484375 -0.1875 C 1.484375 -0.113281 1.46875 -0.0664062 1.4375 -0.046875 C 1.414062 -0.0234375 1.320312 -0.0078125 1.15625 0 C 1 0 0.78125 0 0.5 0 L 0.5 -8.203125 C 0.5 -8.273438 0.515625 -8.320312 0.546875 -8.34375 C 0.578125 -8.375 0.671875 -8.390625 0.828125 -8.390625 C 0.984375 -8.398438 1.203125 -8.40625 1.484375 -8.40625 L 1.484375 -4.78125 L 3.40625 -8.34375 C 3.632812 -8.382812 3.835938 -8.40625 4.015625 -8.40625 Z M 4.015625 -8.40625 "/></g></g></g></svg>